<?xml version="1.0" encoding="utf-8"?>
<!-- Generator: Adobe Illustrator 13.0.0, SVG Export Plug-In . SVG Version: 6.00 Build 14576)  -->
<!DOCTYPE svg PUBLIC "-//W3C//DTD SVG 1.1//EN" "http://www.w3.org/Graphics/SVG/1.1/DTD/svg11.dtd">
<svg version="1.1" id="Layer_2_copy_3" xmlns="http://www.w3.org/2000/svg" xmlns:xlink="http://www.w3.org/1999/xlink" x="0px"
	 y="0px" width="338.444px" height="391.637px" viewBox="0 0 338.444 391.637" enable-background="new 0 0 338.444 391.637"
	 xml:space="preserve">
<path fill="none" stroke="#FFFFFF" stroke-width="3.338" d="M0.715,206.277c-0.161,0-0.322,0-0.483,0"/>
<path d="M81.415,195.554c-30.293,45.255-60.413,80.443-76.353,94.252l-4.882,3.879c54.575-5.1,87.075-21.661,114.931-43.591
	c25.248,45.096,46.509,94.82,54.055,141.54c0,0,0.723,0.006,0.723,0c7.638-46.557,28.975-96.28,54.238-141.426
	c27.622,21.746,59.897,38.17,114.137,43.256l0.18,0.034c-13.928-9.774-47.417-47.188-81.19-97.085
	c33.873-50.405,67.48-88.346,81.19-98.236c-55.019,5.135-87.191,21.769-114.857,43.822c-25.36-45.216-46.738-95.12-54.311-141.997
	c0,0-0.723-0.006-0.723,0c-7.628,46.509-28.83,96.235-53.961,141.406C86.87,119.626,54.521,103.233,0,98.138
	C13.958,107.934,47.565,145.491,81.415,195.554z M41.288,264.277c13.914-15.565,30.136-36.259,46.724-58.808
	c6.806,10.396,13.571,21.257,20.136,32.462C87.99,250.184,64.894,260.77,41.288,264.277z M296.88,263.94
	c-23.208-3.592-45.907-13.982-65.739-25.985c6.228-10.639,12.631-20.967,19.074-30.886
	C266.182,228.506,282.054,248.148,296.88,263.94z M296.647,127.927c-13.799,15.499-29.83,35.967-46.215,58.24
	c-6.692-10.222-13.344-20.896-19.805-31.901C250.474,142.191,273.277,131.662,296.647,127.927z M119.494,161.201
	c7.233,4.853,13.956,9.787,20.033,14.502c-0.811-2.427-1.464-4.919-2.106-7.391c-0.854-3.287-1.738-6.634-2.979-9.953
	c-2.681-2.435-5.363-4.842-8.069-7.19c15.972-23.435,30.79-46.166,42.502-64.906c12.952,20.789,27.456,43.404,42.615,65.911
	c-2.672,2.352-5.325,4.761-7.979,7.196c-1.049,2.983-1.832,5.982-2.599,8.933c-0.726,2.791-1.463,5.609-2.429,8.328
	c5.987-4.669,12.632-9.582,19.807-14.436c8.025,11.741,16.193,23.374,24.378,34.621c-7.921,10.961-15.854,22.223-23.59,33.435
	c-6.401-4.302-12.388-8.66-17.888-12.872c-5.496,0.248-11.018,0.114-16.188-2.104c9.271,8.695,18.111,17.117,27.187,25.019
	c-16.016,23.496-30.88,46.295-42.621,65.081c-12.854-20.633-27.238-43.064-42.274-65.404c9.235-8.044,18.241-16.622,27.701-25.475
	c-5.402,2.848-11.243,3.144-17.075,2.922c-5.367,4.116-11.188,8.367-17.396,12.565c-8.145-11.924-16.438-23.742-24.748-35.163
	C103.74,183.798,111.716,172.474,119.494,161.201z M107.635,153.636c-6.261,10.759-12.703,21.201-19.187,31.226
	c-16.085-21.61-32.078-41.407-47.007-57.294C64.863,131.147,87.703,141.579,107.635,153.636z"/>
<path d="M169.165,254.592h0.003c0.855-18.67,14.228-30.05,7.469-44.03c-3.327-6.879-5.753-8.125-7.469-15.19h-0.003
	c-1.716,7.065-4.142,8.312-7.467,15.19C154.938,224.542,168.31,235.922,169.165,254.592z M185.947,192.953
	c-7.571,1.038-9.505,2.961-16.756,2.409v0.003c6.189,3.815,6.624,6.507,12.14,11.797c11.207,10.748,26.162,1.547,44.183,6.503
	l0.002-0.004C208.023,207.081,201.332,190.845,185.947,192.953z M184.15,187.453c13.685-7.336,9.556-24.404,19.838-40.01
	l-0.002-0.004c-11.666,14.601-29.174,15.948-31.925,31.233c-1.351,7.52-0.12,9.953-2.886,16.678l0.004,0.001
	C174.72,190.646,177.415,191.064,184.15,187.453z M154.184,187.463c6.736,3.611,9.429,3.192,14.971,7.9l0.002-0.002
	c-2.763-6.727-1.533-9.159-2.887-16.681c-2.75-15.282-20.258-16.629-31.922-31.231l-0.003,0.003
	C144.627,163.059,140.498,180.125,154.184,187.463z M152.407,192.96c-15.385-2.108-22.075,14.127-39.566,20.708l0.001,0.004
	c18.02-4.956,32.974,4.244,44.183-6.504c5.514-5.289,5.949-7.981,12.139-11.795l-0.002-0.004
	C161.911,195.919,159.979,193.997,152.407,192.96z"/>
</svg>
